<mxfile host="app.diagrams.net" agent="Mozilla/5.0 (Windows NT 10.0; Win64; x64) AppleWebKit/537.36 (KHTML, like Gecko) Chrome/127.0.0.0 Safari/537.36" version="24.7.6">
  <diagram name="PÃ¡gina-1" id="Hipv7Keqoj3oRl5ee3d8">
    <mxGraphModel dx="1692" dy="460" grid="1" gridSize="10" guides="1" tooltips="1" connect="1" arrows="1" fold="1" page="1" pageScale="1" pageWidth="827" pageHeight="1169" math="0" shadow="0">
      <root>
        <mxCell id="0" />
        <mxCell id="1" parent="0" />
        <mxCell id="K5qOM5fwwba1Jv6hYMxd-1" value="UI" style="rounded=1;whiteSpace=wrap;html=1;" vertex="1" parent="1">
          <mxGeometry x="40" y="720" width="120" height="60" as="geometry" />
        </mxCell>
        <mxCell id="K5qOM5fwwba1Jv6hYMxd-2" value="View(xm)" style="rounded=1;whiteSpace=wrap;html=1;" vertex="1" parent="1">
          <mxGeometry x="200" y="720" width="120" height="60" as="geometry" />
        </mxCell>
        <mxCell id="K5qOM5fwwba1Jv6hYMxd-4" value="ViewController" style="rounded=1;whiteSpace=wrap;html=1;" vertex="1" parent="1">
          <mxGeometry x="360" y="720" width="120" height="60" as="geometry" />
        </mxCell>
        <mxCell id="K5qOM5fwwba1Jv6hYMxd-6" value="ModelFactoryController" style="rounded=1;whiteSpace=wrap;html=1;" vertex="1" parent="1">
          <mxGeometry x="670" y="720" width="140" height="60" as="geometry" />
        </mxCell>
        <mxCell id="K5qOM5fwwba1Jv6hYMxd-16" style="edgeStyle=orthogonalEdgeStyle;rounded=0;orthogonalLoop=1;jettySize=auto;html=1;" edge="1" parent="1" source="K5qOM5fwwba1Jv6hYMxd-7">
          <mxGeometry relative="1" as="geometry">
            <mxPoint x="90" y="870" as="targetPoint" />
          </mxGeometry>
        </mxCell>
        <mxCell id="K5qOM5fwwba1Jv6hYMxd-7" value="Actor" style="shape=umlActor;verticalLabelPosition=bottom;verticalAlign=top;html=1;outlineConnect=0;" vertex="1" parent="1">
          <mxGeometry x="-80" y="840" width="30" height="60" as="geometry" />
        </mxCell>
        <mxCell id="K5qOM5fwwba1Jv6hYMxd-12" value="Banco" style="rounded=1;whiteSpace=wrap;html=1;" vertex="1" parent="1">
          <mxGeometry x="840" y="720" width="120" height="60" as="geometry" />
        </mxCell>
        <mxCell id="K5qOM5fwwba1Jv6hYMxd-21" value="Crear producto" style="text;html=1;align=center;verticalAlign=middle;whiteSpace=wrap;rounded=0;" vertex="1" parent="1">
          <mxGeometry x="-20" y="830" width="80" height="30" as="geometry" />
        </mxCell>
        <mxCell id="K5qOM5fwwba1Jv6hYMxd-24" value="" style="shape=link;endArrow=classic;html=1;rounded=0;exitX=0.5;exitY=1;exitDx=0;exitDy=0;" edge="1" parent="1" source="K5qOM5fwwba1Jv6hYMxd-2">
          <mxGeometry width="50" height="50" relative="1" as="geometry">
            <mxPoint x="250" y="880" as="sourcePoint" />
            <mxPoint x="260" y="1240" as="targetPoint" />
            <Array as="points">
              <mxPoint x="260" y="980" />
            </Array>
          </mxGeometry>
        </mxCell>
        <mxCell id="K5qOM5fwwba1Jv6hYMxd-25" value="" style="shape=link;endArrow=classic;html=1;rounded=0;exitX=0.5;exitY=1;exitDx=0;exitDy=0;" edge="1" parent="1">
          <mxGeometry width="50" height="50" relative="1" as="geometry">
            <mxPoint x="99.5" y="780" as="sourcePoint" />
            <mxPoint x="100" y="1240" as="targetPoint" />
          </mxGeometry>
        </mxCell>
        <mxCell id="K5qOM5fwwba1Jv6hYMxd-26" value="" style="shape=link;endArrow=classic;html=1;rounded=0;exitX=0.5;exitY=1;exitDx=0;exitDy=0;" edge="1" parent="1">
          <mxGeometry width="50" height="50" relative="1" as="geometry">
            <mxPoint x="419.5" y="780" as="sourcePoint" />
            <mxPoint x="420" y="1240" as="targetPoint" />
          </mxGeometry>
        </mxCell>
        <mxCell id="K5qOM5fwwba1Jv6hYMxd-27" value="" style="shape=link;endArrow=classic;html=1;rounded=0;exitX=0.5;exitY=1;exitDx=0;exitDy=0;strokeColor=default;" edge="1" parent="1">
          <mxGeometry width="50" height="50" relative="1" as="geometry">
            <mxPoint x="579.5" y="780" as="sourcePoint" />
            <mxPoint x="580" y="1240" as="targetPoint" />
          </mxGeometry>
        </mxCell>
        <mxCell id="K5qOM5fwwba1Jv6hYMxd-28" value="" style="shape=link;endArrow=classic;html=1;rounded=0;exitX=0.5;exitY=1;exitDx=0;exitDy=0;" edge="1" parent="1">
          <mxGeometry width="50" height="50" relative="1" as="geometry">
            <mxPoint x="739.5" y="780" as="sourcePoint" />
            <mxPoint x="740" y="1240" as="targetPoint" />
          </mxGeometry>
        </mxCell>
        <mxCell id="K5qOM5fwwba1Jv6hYMxd-31" style="edgeStyle=orthogonalEdgeStyle;rounded=0;orthogonalLoop=1;jettySize=auto;html=1;" edge="1" parent="1">
          <mxGeometry relative="1" as="geometry">
            <mxPoint x="260" y="890" as="targetPoint" />
            <mxPoint x="110" y="890" as="sourcePoint" />
          </mxGeometry>
        </mxCell>
        <mxCell id="K5qOM5fwwba1Jv6hYMxd-32" value="Formulario" style="rounded=1;whiteSpace=wrap;html=1;" vertex="1" parent="1">
          <mxGeometry x="130" y="840" width="110" height="40" as="geometry" />
        </mxCell>
        <mxCell id="K5qOM5fwwba1Jv6hYMxd-34" style="edgeStyle=orthogonalEdgeStyle;rounded=0;orthogonalLoop=1;jettySize=auto;html=1;" edge="1" parent="1">
          <mxGeometry relative="1" as="geometry">
            <mxPoint x="414" y="910" as="targetPoint" />
            <mxPoint x="264" y="910" as="sourcePoint" />
          </mxGeometry>
        </mxCell>
        <mxCell id="K5qOM5fwwba1Jv6hYMxd-35" style="edgeStyle=orthogonalEdgeStyle;rounded=0;orthogonalLoop=1;jettySize=auto;html=1;" edge="1" parent="1">
          <mxGeometry relative="1" as="geometry">
            <mxPoint x="580" y="920" as="targetPoint" />
            <mxPoint x="420" y="920" as="sourcePoint" />
          </mxGeometry>
        </mxCell>
        <mxCell id="K5qOM5fwwba1Jv6hYMxd-36" value="Formulario" style="rounded=1;whiteSpace=wrap;html=1;" vertex="1" parent="1">
          <mxGeometry x="290" y="860" width="100" height="40" as="geometry" />
        </mxCell>
        <mxCell id="K5qOM5fwwba1Jv6hYMxd-37" value="ProductoDto" style="rounded=1;whiteSpace=wrap;html=1;" vertex="1" parent="1">
          <mxGeometry x="450" y="870" width="100" height="40" as="geometry" />
        </mxCell>
        <mxCell id="K5qOM5fwwba1Jv6hYMxd-42" value="mapper" style="text;html=1;align=center;verticalAlign=middle;whiteSpace=wrap;rounded=0;" vertex="1" parent="1">
          <mxGeometry x="770" y="950" width="50" height="20" as="geometry" />
        </mxCell>
        <mxCell id="K5qOM5fwwba1Jv6hYMxd-44" value="Producto" style="rounded=1;whiteSpace=wrap;html=1;" vertex="1" parent="1">
          <mxGeometry x="770" y="980" width="100" height="40" as="geometry" />
        </mxCell>
        <mxCell id="K5qOM5fwwba1Jv6hYMxd-47" style="edgeStyle=orthogonalEdgeStyle;rounded=0;orthogonalLoop=1;jettySize=auto;html=1;strokeWidth=1;" edge="1" parent="1">
          <mxGeometry relative="1" as="geometry">
            <mxPoint x="900" y="1070" as="targetPoint" />
            <mxPoint x="900" y="1040" as="sourcePoint" />
            <Array as="points">
              <mxPoint x="940" y="1040" />
              <mxPoint x="940" y="1070" />
            </Array>
          </mxGeometry>
        </mxCell>
        <mxCell id="K5qOM5fwwba1Jv6hYMxd-48" value="Agregar" style="text;html=1;align=center;verticalAlign=middle;whiteSpace=wrap;rounded=0;" vertex="1" parent="1">
          <mxGeometry x="940" y="1040" width="60" height="30" as="geometry" />
        </mxCell>
        <mxCell id="K5qOM5fwwba1Jv6hYMxd-50" value="&lt;div&gt;&lt;span style=&quot;background-color: initial;&quot;&gt;Controller&lt;/span&gt;&lt;br&gt;&lt;/div&gt;" style="rounded=1;whiteSpace=wrap;html=1;" vertex="1" parent="1">
          <mxGeometry x="520" y="720" width="120" height="60" as="geometry" />
        </mxCell>
        <mxCell id="K5qOM5fwwba1Jv6hYMxd-51" style="edgeStyle=orthogonalEdgeStyle;rounded=0;orthogonalLoop=1;jettySize=auto;html=1;" edge="1" parent="1">
          <mxGeometry relative="1" as="geometry">
            <mxPoint x="740" y="939.5" as="targetPoint" />
            <mxPoint x="580" y="940" as="sourcePoint" />
          </mxGeometry>
        </mxCell>
        <mxCell id="K5qOM5fwwba1Jv6hYMxd-53" value="ProductoDto" style="rounded=1;whiteSpace=wrap;html=1;" vertex="1" parent="1">
          <mxGeometry x="610" y="890" width="100" height="40" as="geometry" />
        </mxCell>
        <mxCell id="K5qOM5fwwba1Jv6hYMxd-54" style="edgeStyle=orthogonalEdgeStyle;rounded=0;orthogonalLoop=1;jettySize=auto;html=1;" edge="1" parent="1">
          <mxGeometry relative="1" as="geometry">
            <mxPoint x="740" y="970" as="targetPoint" />
            <mxPoint x="740" y="950.5" as="sourcePoint" />
            <Array as="points">
              <mxPoint x="771" y="951" />
              <mxPoint x="771" y="970" />
              <mxPoint x="750" y="970" />
            </Array>
          </mxGeometry>
        </mxCell>
        <mxCell id="K5qOM5fwwba1Jv6hYMxd-55" value="" style="shape=link;endArrow=classic;html=1;rounded=0;exitX=0.5;exitY=1;exitDx=0;exitDy=0;" edge="1" parent="1">
          <mxGeometry width="50" height="50" relative="1" as="geometry">
            <mxPoint x="899.5" y="780" as="sourcePoint" />
            <mxPoint x="899.5" y="1172" as="targetPoint" />
          </mxGeometry>
        </mxCell>
        <mxCell id="K5qOM5fwwba1Jv6hYMxd-56" style="edgeStyle=orthogonalEdgeStyle;rounded=0;orthogonalLoop=1;jettySize=auto;html=1;" edge="1" parent="1">
          <mxGeometry relative="1" as="geometry">
            <mxPoint x="900" y="1030" as="targetPoint" />
            <mxPoint x="740" y="1030.5" as="sourcePoint" />
          </mxGeometry>
        </mxCell>
        <mxCell id="K5qOM5fwwba1Jv6hYMxd-57" value="" style="endArrow=classic;html=1;rounded=0;dashed=1;" edge="1" parent="1">
          <mxGeometry width="50" height="50" relative="1" as="geometry">
            <mxPoint x="900" y="1120" as="sourcePoint" />
            <mxPoint x="740" y="1120" as="targetPoint" />
          </mxGeometry>
        </mxCell>
        <mxCell id="K5qOM5fwwba1Jv6hYMxd-59" value="return true" style="text;html=1;align=center;verticalAlign=middle;resizable=0;points=[];autosize=1;strokeColor=none;fillColor=none;" vertex="1" parent="1">
          <mxGeometry x="780" y="1088" width="80" height="30" as="geometry" />
        </mxCell>
        <mxCell id="K5qOM5fwwba1Jv6hYMxd-60" value="return true" style="text;html=1;align=center;verticalAlign=middle;resizable=0;points=[];autosize=1;strokeColor=none;fillColor=none;" vertex="1" parent="1">
          <mxGeometry x="620" y="1110" width="80" height="30" as="geometry" />
        </mxCell>
        <mxCell id="K5qOM5fwwba1Jv6hYMxd-61" value="" style="endArrow=classic;html=1;rounded=0;dashed=1;" edge="1" parent="1">
          <mxGeometry width="50" height="50" relative="1" as="geometry">
            <mxPoint x="735" y="1140" as="sourcePoint" />
            <mxPoint x="580" y="1140" as="targetPoint" />
          </mxGeometry>
        </mxCell>
        <mxCell id="K5qOM5fwwba1Jv6hYMxd-63" value="" style="endArrow=classic;html=1;rounded=0;dashed=1;" edge="1" parent="1">
          <mxGeometry width="50" height="50" relative="1" as="geometry">
            <mxPoint x="577.5" y="1150" as="sourcePoint" />
            <mxPoint x="422.5" y="1150" as="targetPoint" />
          </mxGeometry>
        </mxCell>
        <mxCell id="K5qOM5fwwba1Jv6hYMxd-64" value="" style="endArrow=classic;html=1;rounded=0;dashed=1;" edge="1" parent="1">
          <mxGeometry width="50" height="50" relative="1" as="geometry">
            <mxPoint x="417.5" y="1168" as="sourcePoint" />
            <mxPoint x="262.5" y="1168" as="targetPoint" />
          </mxGeometry>
        </mxCell>
        <mxCell id="K5qOM5fwwba1Jv6hYMxd-65" value="return true" style="text;html=1;align=center;verticalAlign=middle;resizable=0;points=[];autosize=1;strokeColor=none;fillColor=none;" vertex="1" parent="1">
          <mxGeometry x="460" y="1118" width="80" height="30" as="geometry" />
        </mxCell>
        <mxCell id="K5qOM5fwwba1Jv6hYMxd-66" value="return ok" style="text;html=1;align=center;verticalAlign=middle;resizable=0;points=[];autosize=1;strokeColor=none;fillColor=none;" vertex="1" parent="1">
          <mxGeometry x="305" y="1130" width="70" height="30" as="geometry" />
        </mxCell>
        <mxCell id="K5qOM5fwwba1Jv6hYMxd-67" value="return ok" style="text;html=1;align=center;verticalAlign=middle;resizable=0;points=[];autosize=1;strokeColor=none;fillColor=none;" vertex="1" parent="1">
          <mxGeometry x="150" y="1160" width="70" height="30" as="geometry" />
        </mxCell>
        <mxCell id="K5qOM5fwwba1Jv6hYMxd-68" value="" style="endArrow=classic;html=1;rounded=0;dashed=1;" edge="1" parent="1">
          <mxGeometry width="50" height="50" relative="1" as="geometry">
            <mxPoint x="255" y="1190" as="sourcePoint" />
            <mxPoint x="100" y="1190" as="targetPoint" />
          </mxGeometry>
        </mxCell>
      </root>
    </mxGraphModel>
  </diagram>
</mxfile>
